<svg width="160" height="24" viewBox="0 0 160 24" fill="none" xmlns="http://www.w3.org/2000/svg">
<mask id="mask0_1029_3603" style="mask-type:alpha" maskUnits="userSpaceOnUse" x="0" y="0" width="160" height="24">
<rect width="160" height="24" fill="#D9D9D9"/>
</mask>
<g mask="url(#mask0_1029_3603)">
<path d="M47.97 11.7758C47.97 14.2063 46.033 16.1766 43.6437 16.1766C41.2543 16.1766 39.3174 14.2063 39.3174 11.7758C39.3174 9.3453 41.2543 7.375 43.6437 7.375C46.033 7.375 47.97 9.3453 47.97 11.7758Z" fill="#A1FF75"/>
<path d="M159.359 24H154.069V5.98329L140.218 24H133.351L152.278 0H159.359V24Z" fill="white"/>
<path d="M129.439 0H135.157L126.663 24H118.53L107.341 0H113.272L122.342 20.0223L129.439 0Z" fill="white"/>
<path d="M91.6326 0H91.6819C93.7302 0 95.6525 0.183844 97.4489 0.551532C99.2562 0.908078 100.839 1.53203 102.197 2.4234C103.566 3.31476 104.64 4.54039 105.417 6.10028C106.195 7.64902 106.584 9.6156 106.584 12C106.584 14.2507 106.223 16.1448 105.5 17.6825C104.777 19.2089 103.753 20.4401 102.427 21.376C101.113 22.3008 99.541 22.9694 97.7117 23.3816C95.8935 23.7939 93.8835 24 91.6819 24H91.6326C89.42 24 87.3991 23.7939 85.5699 23.3816C83.7516 22.9694 82.1798 22.3008 80.8544 21.376C79.54 20.4401 78.5214 19.2089 77.7984 17.6825C77.0865 16.1448 76.7305 14.2507 76.7305 12C76.7305 9.6156 77.1193 7.64902 77.897 6.10028C78.6747 4.54039 79.7427 3.31476 81.1009 2.4234C82.4701 1.53203 84.0528 0.908078 85.8492 0.551532C87.6565 0.183844 89.5843 0 91.6326 0ZM91.6819 4.67967H91.6326C90.7344 4.67967 89.8034 4.71866 88.8395 4.79666C87.8756 4.86351 86.9445 5.02507 86.0463 5.28134C85.1591 5.5376 84.354 5.93315 83.6311 6.46797C82.9191 6.99164 82.3496 7.70474 81.9224 8.60724C81.4952 9.49861 81.2816 10.6295 81.2816 12C81.2816 13.2925 81.4952 14.3788 81.9224 15.2591C82.3496 16.1281 82.9246 16.8357 83.6476 17.3816C84.3705 17.9164 85.181 18.3287 86.0792 18.6184C86.9774 18.8969 87.903 19.0864 88.8559 19.1866C89.8198 19.2869 90.7454 19.337 91.6326 19.337C91.6545 19.337 91.6709 19.337 91.6819 19.337C92.5582 19.337 93.4782 19.2869 94.4421 19.1866C95.406 19.0864 96.3371 18.8969 97.2353 18.6184C98.1334 18.3287 98.9385 17.9164 99.6505 17.3816C100.373 16.8357 100.948 16.1281 101.376 15.2591C101.803 14.3788 102.016 13.2925 102.016 12C102.016 10.6295 101.803 9.49861 101.376 8.60724C100.959 7.70474 100.39 6.99164 99.6669 6.46797C98.955 5.93315 98.1499 5.5376 97.2517 5.28134C96.3535 5.02507 95.4225 4.86351 94.4586 4.79666C93.4947 4.71866 92.5691 4.67967 91.6819 4.67967Z" fill="white"/>
<path d="M74.8072 0V4.3454H67.578V24H62.8132V4.3454H55.584V0H74.8072Z" fill="white"/>
<path d="M53.1031 0V4.17827H46.2682C44.669 4.17827 43.1848 4.28412 41.8156 4.49582C40.4464 4.70752 39.247 5.09749 38.2174 5.66574C37.1987 6.22284 36.3991 7.01393 35.8186 8.039C35.249 9.05293 34.9642 10.3733 34.9642 12C34.9642 13.2368 35.1176 14.3008 35.4243 15.1922C35.731 16.0836 36.1856 16.8301 36.788 17.4318C37.3904 18.0334 38.1407 18.5125 39.0389 18.8691C39.948 19.2145 41.0051 19.4652 42.2099 19.6212C43.4148 19.766 44.7676 19.8384 46.2682 19.8384H53.1031V24H41.9306C38.2393 24 35.3476 22.9415 33.2555 20.8245C31.1744 18.6964 30.1338 15.7549 30.1338 12C30.1338 9.79387 30.665 7.78273 31.7275 5.96657C32.79 4.15042 34.2139 2.70195 35.9993 1.62117C37.7848 0.54039 39.7618 0 41.9306 0H53.1031Z" fill="#A1FF75"/>
<path d="M26.0089 24H20.7184V5.98329L6.86779 24H0L18.9275 0H26.0089V24Z" fill="white"/>
</g>
</svg>
