<svg width="160" height="24" viewBox="0 0 160 24" fill="none" xmlns="http://www.w3.org/2000/svg">
<mask id="mask0_979_3712" style="mask-type:alpha" maskUnits="userSpaceOnUse" x="0" y="0" width="160" height="24">
<rect width="160" height="24" fill="#D9D9D9"/>
</mask>
<g mask="url(#mask0_979_3712)">
<path d="M47.9704 11.7758C47.9704 14.2063 46.0335 16.1766 43.6442 16.1766C41.2548 16.1766 39.3179 14.2063 39.3179 11.7758C39.3179 9.3453 41.2548 7.375 43.6442 7.375C46.0335 7.375 47.9704 9.3453 47.9704 11.7758Z" fill="#A1FF75"/>
<path d="M159.358 24H154.068V5.98329L140.217 24H133.35L152.277 0H159.358V24Z" fill="#020202"/>
<path d="M129.439 0H135.157L126.662 24H118.529L107.34 0H113.272L122.341 20.0223L129.439 0Z" fill="#020202"/>
<path d="M91.6321 0H91.6814C93.7297 0 95.652 0.183844 97.4484 0.551532C99.2557 0.908078 100.838 1.53203 102.197 2.4234C103.566 3.31476 104.639 4.54039 105.417 6.10028C106.195 7.64902 106.584 9.6156 106.584 12C106.584 14.2507 106.222 16.1448 105.499 17.6825C104.776 19.2089 103.752 20.4401 102.427 21.376C101.112 22.3008 99.5405 22.9694 97.7112 23.3816C95.893 23.7939 93.883 24 91.6814 24H91.6321C89.4195 24 87.3986 23.7939 85.5694 23.3816C83.7511 22.9694 82.1793 22.3008 80.8539 21.376C79.5395 20.4401 78.5209 19.2089 77.7979 17.6825C77.086 16.1448 76.73 14.2507 76.73 12C76.73 9.6156 77.1188 7.64902 77.8965 6.10028C78.6742 4.54039 79.7422 3.31476 81.1004 2.4234C82.4696 1.53203 84.0523 0.908078 85.8487 0.551532C87.656 0.183844 89.5838 0 91.6321 0ZM91.6814 4.67967H91.6321C90.7339 4.67967 89.8029 4.71866 88.839 4.79666C87.8751 4.86351 86.944 5.02507 86.0459 5.28134C85.1586 5.5376 84.3536 5.93315 83.6306 6.46797C82.9187 6.99164 82.3491 7.70474 81.9219 8.60724C81.4947 9.49861 81.2811 10.6295 81.2811 12C81.2811 13.2925 81.4947 14.3788 81.9219 15.2591C82.3491 16.1281 82.9241 16.8357 83.6471 17.3816C84.37 17.9164 85.1805 18.3287 86.0787 18.6184C86.9769 18.8969 87.9025 19.0864 88.8554 19.1866C89.8193 19.2869 90.7449 19.337 91.6321 19.337C91.654 19.337 91.6704 19.337 91.6814 19.337C92.5577 19.337 93.4778 19.2869 94.4417 19.1866C95.4056 19.0864 96.3366 18.8969 97.2348 18.6184C98.133 18.3287 98.938 17.9164 99.65 17.3816C100.373 16.8357 100.948 16.1281 101.375 15.2591C101.802 14.3788 102.016 13.2925 102.016 12C102.016 10.6295 101.802 9.49861 101.375 8.60724C100.959 7.70474 100.389 6.99164 99.6664 6.46797C98.9545 5.93315 98.1494 5.5376 97.2512 5.28134C96.353 5.02507 95.422 4.86351 94.4581 4.79666C93.4942 4.71866 92.5686 4.67967 91.6814 4.67967Z" fill="#020202"/>
<path d="M74.8072 0V4.3454H67.578V24H62.8132V4.3454H55.584V0H74.8072Z" fill="#020202"/>
<path d="M53.1021 0V4.17827H46.2672C44.668 4.17827 43.1838 4.28412 41.8146 4.49582C40.4455 4.70752 39.2461 5.09749 38.2164 5.66574C37.1978 6.22284 36.3982 7.01393 35.8176 8.039C35.2481 9.05293 34.9633 10.3733 34.9633 12C34.9633 13.2368 35.1166 14.3008 35.4233 15.1922C35.73 16.0836 36.1846 16.8301 36.787 17.4318C37.3895 18.0334 38.1398 18.5125 39.0379 18.8691C39.9471 19.2145 41.0041 19.4652 42.209 19.6212C43.4138 19.766 44.7666 19.8384 46.2672 19.8384H53.1021V24H41.9296C38.2383 24 35.3466 22.9415 33.2545 20.8245C31.1734 18.6964 30.1328 15.7549 30.1328 12C30.1328 9.79387 30.6641 7.78273 31.7265 5.96657C32.789 4.15042 34.213 2.70195 35.9984 1.62117C37.7838 0.54039 39.7609 0 41.9296 0H53.1021Z" fill="#A1FF75"/>
<path d="M26.0084 24H20.7179V5.98329L6.8673 24H-0.000488281L18.927 0H26.0084V24Z" fill="#020202"/>
</g>
</svg>
