<svg width="23" height="24" viewBox="0 0 23 24" fill="none" xmlns="http://www.w3.org/2000/svg">
<path d="M17.8371 11.7758C17.8371 14.2063 15.9002 16.1766 13.5109 16.1766C11.1215 16.1766 9.18457 14.2063 9.18457 11.7758C9.18457 9.3453 11.1215 7.375 13.5109 7.375C15.9002 7.375 17.8371 9.3453 17.8371 11.7758Z" fill="#A1FF75"/>
<path d="M22.9693 0V4.17827H16.1344C14.5352 4.17827 13.051 4.28412 11.6818 4.49582C10.3126 4.70752 9.11324 5.09749 8.08362 5.66574C7.06495 6.22284 6.26535 7.01393 5.68482 8.039C5.11525 9.05293 4.83046 10.3733 4.83046 12C4.83046 13.2368 4.9838 14.3008 5.2905 15.1922C5.5972 16.0836 6.05176 16.8301 6.6542 17.4318C7.25664 18.0334 8.00695 18.5125 8.90513 18.8691C9.81426 19.2145 10.8713 19.4652 12.0761 19.6212C13.281 19.766 14.6338 19.8384 16.1344 19.8384H22.9693V24H11.7968C8.10553 24 5.21383 22.9415 3.12172 20.8245C1.04057 18.6964 0 15.7549 0 12C0 9.79387 0.531241 7.78273 1.59372 5.96657C2.6562 4.15042 4.08015 2.70195 5.86555 1.62117C7.65096 0.54039 9.62805 0 11.7968 0H22.9693Z" fill="#A1FF75"/>
</svg>
